<svg width="95" height="49" viewBox="0 0 95 49" fill="none" xmlns="http://www.w3.org/2000/svg">
<g clip-path="url(#clip0_1_145)">
<path d="M22.9911 0.0927697C19.9022 -0.199849 16.7869 0.194579 13.8684 1.24778C10.95 2.30097 8.30072 3.98684 6.11056 6.18452C3.17622 9.13805 1.18484 12.8963 0.388833 16.9829C-0.407171 21.0694 0.028044 25.3003 1.63931 29.1393C3.25616 32.9759 5.97569 36.246 9.45319 38.5353C12.9307 40.8245 17.0096 42.0298 21.1728 41.9983C21.7021 42.0042 22.2272 41.9045 22.7175 41.7051C23.2078 41.5056 23.6534 41.2104 24.0282 40.8367C24.4031 40.463 24.6996 40.0183 24.9006 39.5287C25.1015 39.039 25.2028 38.5142 25.1985 37.9849C25.1942 37.4556 25.0844 36.9325 24.8755 36.4462C24.6666 35.9598 24.3629 35.52 23.982 35.1525C23.6011 34.7849 23.1508 34.497 22.6573 34.3055C22.1638 34.1141 21.6372 34.023 21.1081 34.0375C18.5216 34.0627 15.9864 33.3167 13.8257 31.8948C11.6651 30.4729 9.97706 28.4394 8.97706 26.054C7.97146 23.6711 7.69857 21.0426 8.19322 18.5039C8.68787 15.9651 9.92763 13.6314 11.7543 11.8003C13.3338 10.2074 15.2982 9.04982 17.4569 8.43985C19.6156 7.82988 21.8954 7.78823 24.0749 8.31895C26.2545 8.84966 28.2598 9.93471 29.8965 11.4688C31.5331 13.003 32.7454 14.9341 33.4158 17.0748H21.0871C20.0312 17.0748 19.0185 17.4942 18.2719 18.2409C17.5253 18.9875 17.1058 20.0001 17.1058 21.056C17.1058 22.1119 17.5253 23.1246 18.2719 23.8712C19.0185 24.6178 20.0312 25.0373 21.0871 25.0373H38.0166C39.0703 25.0377 40.0813 24.6204 40.8279 23.8768C41.5745 23.1331 41.9959 22.1238 41.9996 21.07C42.0107 16.9065 40.7854 12.8335 38.479 9.36722C36.1726 5.90093 32.8889 3.19746 29.0443 1.59952C27.113 0.798368 25.0726 0.291071 22.9911 0.0945197V0.0927697Z" fill="#3E3689"/>
</g>
<path d="M29.7733 43.264C29.4693 43.344 29.1973 43.256 28.9573 43C28.7173 42.76 28.5493 42.4 28.4533 41.92C28.3573 41.44 28.3733 40.904 28.5013 40.312C28.5813 40.12 28.6453 39.936 28.6933 39.76C28.7413 39.568 28.7653 39.416 28.7653 39.304C28.7973 39.144 28.8613 38.912 28.9573 38.608C29.0533 38.288 29.1573 37.96 29.2693 37.624C29.3813 37.288 29.4853 36.992 29.5813 36.736C29.6933 36.464 29.7653 36.296 29.7973 36.232C29.8613 36.232 29.9173 36.176 29.9653 36.064C30.0133 35.952 30.0373 35.84 30.0373 35.728C30.0373 35.6 30.0613 35.456 30.1093 35.296C30.1733 35.136 30.2373 35.024 30.3013 34.96C30.3013 34.88 30.3173 34.792 30.3493 34.696C30.3973 34.584 30.4213 34.496 30.4213 34.432C30.4213 34.368 30.4373 34.304 30.4693 34.24C30.5173 34.176 30.5413 34.112 30.5413 34.048C30.6533 33.84 30.7973 33.512 30.9733 33.064C31.1653 32.6 31.3653 32.088 31.5733 31.528C31.7973 30.968 32.0053 30.416 32.1973 29.872C32.3893 29.328 32.5413 28.872 32.6533 28.504C32.7813 28.12 32.8453 27.888 32.8453 27.808C32.8453 27.68 32.8933 27.56 32.9893 27.448C33.0853 27.336 33.1973 27.28 33.3253 27.28C33.3733 27.232 33.4853 27.2 33.6613 27.184C33.8373 27.152 33.9573 27.136 34.0213 27.136C34.0213 27.136 34.0533 27.168 34.1173 27.232C34.1813 27.296 34.2773 27.392 34.4053 27.52C34.5333 27.632 34.6533 27.76 34.7653 27.904C34.8933 28.048 34.9573 28.216 34.9573 28.408C34.9573 28.616 34.9253 28.816 34.8613 29.008C34.8133 29.2 34.7173 29.464 34.5733 29.8C34.4293 30.12 34.2053 30.6 33.9013 31.24C33.7733 31.56 33.6373 31.864 33.4933 32.152C33.3493 32.424 33.2773 32.592 33.2773 32.656C33.2773 32.72 33.2453 32.816 33.1813 32.944C33.1333 33.072 33.0773 33.232 33.0133 33.424C32.9493 33.552 32.8613 33.744 32.7493 34C32.6373 34.24 32.5173 34.504 32.3893 34.792C32.2773 35.064 32.1813 35.304 32.1013 35.512C32.0213 35.704 31.9813 35.816 31.9813 35.848C31.9813 35.912 31.9733 35.976 31.9573 36.04C31.9573 36.104 31.9253 36.168 31.8613 36.232C31.7973 36.232 31.7573 36.28 31.7413 36.376C31.7413 36.456 31.7413 36.496 31.7413 36.496C31.7413 36.656 31.6133 37.08 31.3573 37.768C31.1013 38.648 30.8613 39.456 30.6373 40.192C30.4293 40.928 30.3253 41.52 30.3253 41.968C30.3253 42.352 30.2613 42.648 30.1333 42.856C30.0213 43.064 29.9013 43.2 29.7733 43.264ZM37.1829 42.52C36.7029 42.792 36.1909 42.952 35.6469 43C35.1189 43.032 34.6229 42.96 34.1589 42.784C33.6949 42.592 33.3189 42.312 33.0309 41.944C32.8709 41.736 32.7189 41.408 32.5749 40.96C32.4309 40.496 32.4069 39.872 32.5029 39.088C32.5989 38.352 32.8229 37.608 33.1749 36.856C33.5429 36.104 33.9909 35.44 34.5189 34.864C35.0469 34.288 35.6229 33.896 36.2469 33.688C36.4709 33.608 36.6949 33.552 36.9189 33.52C37.1589 33.472 37.4709 33.464 37.8549 33.496C38.2229 33.544 38.5509 33.64 38.8389 33.784C39.1269 33.912 39.3349 34.056 39.4629 34.216C39.7189 34.472 39.8869 34.72 39.9669 34.96C40.0469 35.2 40.0789 35.432 40.0629 35.656C39.9829 36.168 39.7509 36.72 39.3669 37.312C38.9989 37.904 38.4789 38.344 37.8069 38.632C37.5349 38.744 37.2149 38.816 36.8469 38.848C36.4789 38.88 35.9749 38.832 35.3349 38.704C34.9509 38.624 34.6949 38.664 34.5669 38.824C34.4549 38.984 34.4069 39.296 34.4229 39.76C34.4549 40.048 34.5189 40.304 34.6149 40.528C34.7269 40.736 34.9269 40.88 35.2149 40.96C35.5829 41.024 35.8469 41.032 36.0069 40.984C36.1669 40.92 36.3669 40.832 36.6069 40.72C36.7349 40.64 36.8549 40.552 36.9669 40.456C37.0949 40.36 37.2149 40.264 37.3269 40.168C37.4549 40.072 37.5589 40 37.6389 39.952C37.7189 39.888 37.7989 39.848 37.8789 39.832C37.9589 39.816 38.0389 39.808 38.1189 39.808C38.2949 39.824 38.4629 39.92 38.6229 40.096C38.7829 40.272 38.8869 40.44 38.9349 40.6C38.9349 40.728 38.8549 40.912 38.6949 41.152C38.5349 41.376 38.3189 41.616 38.0469 41.872C37.7909 42.112 37.5029 42.328 37.1829 42.52ZM36.8709 37.168C36.9829 37.12 37.1429 37.008 37.3509 36.832C37.5749 36.656 37.7749 36.472 37.9509 36.28C38.1269 36.072 38.2149 35.912 38.2149 35.8C38.2149 35.624 38.0949 35.472 37.8549 35.344C37.6309 35.216 37.3349 35.192 36.9669 35.272C36.8389 35.304 36.6869 35.392 36.5109 35.536C36.3349 35.68 36.1589 35.848 35.9829 36.04C35.8069 36.216 35.6549 36.392 35.5269 36.568C35.3989 36.728 35.3109 36.856 35.2629 36.952C35.3269 37.032 35.4549 37.096 35.6469 37.144C35.8389 37.192 36.0469 37.216 36.2709 37.216C36.5109 37.216 36.7109 37.2 36.8709 37.168ZM42.1986 42.808C41.8466 42.808 41.5826 42.792 41.4066 42.76C41.2466 42.728 41.1266 42.68 41.0466 42.616C40.9666 42.552 40.8626 42.464 40.7346 42.352C40.6706 42.224 40.5586 42.064 40.3986 41.872C40.2386 41.664 40.1266 41.528 40.0626 41.464C39.9986 41.224 39.9746 40.896 39.9906 40.48C40.0226 40.064 40.0946 39.616 40.2066 39.136C40.3186 38.656 40.4546 38.224 40.6146 37.84C40.6786 37.712 40.7346 37.584 40.7826 37.456C40.8306 37.328 40.8546 37.264 40.8546 37.264C40.8546 37.184 40.9506 36.992 41.1426 36.688C41.3506 36.384 41.5746 36.064 41.8146 35.728C42.0706 35.392 42.2786 35.152 42.4386 35.008C42.5506 34.88 42.7186 34.744 42.9426 34.6C43.1826 34.456 43.3906 34.352 43.5666 34.288C43.7426 34.224 43.9826 34.144 44.2866 34.048C44.5906 33.936 44.8626 33.88 45.1026 33.88C45.3266 33.88 45.5666 33.928 45.8226 34.024C46.0786 34.12 46.2946 34.288 46.4706 34.528C46.7586 34.816 46.9426 35.16 47.0226 35.56C47.1026 35.96 47.1106 36.304 47.0466 36.592C46.9666 36.912 46.8066 37.176 46.5666 37.384C46.3266 37.576 46.0706 37.68 45.7986 37.696C45.5266 37.696 45.2866 37.584 45.0786 37.36C45.0146 37.232 44.9826 37.128 44.9826 37.048C44.9826 36.952 45.0146 36.816 45.0786 36.64C45.1426 36.416 45.1746 36.216 45.1746 36.04C45.1746 35.864 45.1026 35.776 44.9586 35.776C44.7506 35.776 44.5826 35.84 44.4546 35.968C44.3266 36.08 44.1346 36.272 43.8786 36.544C43.7666 36.672 43.6226 36.856 43.4466 37.096C43.2706 37.336 43.0946 37.6 42.9186 37.888C42.7586 38.16 42.6146 38.44 42.4866 38.728C42.3106 39.256 42.1986 39.6 42.1506 39.76C42.1186 39.904 42.1026 39.976 42.1026 39.976C42.1026 40.04 42.0946 40.104 42.0786 40.168C42.0626 40.216 42.0546 40.272 42.0546 40.336C42.0546 40.528 42.1666 40.68 42.3906 40.792C42.5666 40.904 42.7106 40.96 42.8226 40.96C42.9506 40.944 43.1906 40.856 43.5426 40.696C43.7986 40.568 44.0386 40.4 44.2626 40.192C44.5026 39.984 44.7506 39.8 45.0066 39.64C45.1826 39.528 45.3186 39.432 45.4146 39.352C45.5266 39.272 45.5826 39.264 45.5826 39.328C45.5826 39.392 45.6066 39.424 45.6546 39.424C45.7026 39.424 45.7586 39.392 45.8226 39.328C45.9186 39.2 46.0386 39.152 46.1826 39.184C46.3266 39.2 46.4546 39.24 46.5666 39.304C46.6946 39.368 46.7586 39.424 46.7586 39.472C46.7266 39.616 46.7586 39.736 46.8546 39.832C46.8546 39.896 46.8306 39.984 46.7826 40.096C46.7506 40.192 46.7026 40.272 46.6386 40.336C46.5586 40.448 46.4386 40.608 46.2786 40.816C46.1346 41.024 45.9986 41.208 45.8706 41.368C45.7426 41.528 45.6786 41.608 45.6786 41.608C45.6146 41.592 45.5506 41.608 45.4866 41.656C45.4386 41.704 45.3826 41.76 45.3186 41.824C45.1906 41.936 45.0706 42.024 44.9586 42.088C44.8466 42.136 44.7586 42.16 44.6946 42.16C44.5826 42.224 44.4946 42.264 44.4306 42.28C44.3826 42.296 44.3586 42.336 44.3586 42.4C44.1986 42.56 43.9106 42.672 43.4946 42.736C43.0786 42.784 42.6466 42.808 42.1986 42.808ZM50.487 44.44C49.703 44.424 49.199 44.2 48.975 43.768C48.767 43.352 48.711 42.824 48.807 42.184C48.903 41.88 48.959 41.608 48.975 41.368C49.007 41.112 49.079 40.952 49.191 40.888C49.191 40.888 49.199 40.864 49.215 40.816C49.247 40.768 49.239 40.72 49.191 40.672C49.191 40.464 49.263 40.176 49.407 39.808C49.439 39.712 49.479 39.6 49.527 39.472C49.591 39.328 49.623 39.256 49.623 39.256C49.543 39.128 49.543 39.024 49.623 38.944C49.703 38.864 49.783 38.792 49.863 38.728C49.959 38.648 49.967 38.56 49.887 38.464C49.855 38.4 49.895 38.256 50.007 38.032C50.119 37.792 50.247 37.544 50.391 37.288C50.535 37.032 50.631 36.832 50.679 36.688C50.679 36.656 50.719 36.544 50.799 36.352C50.879 36.16 50.975 35.936 51.087 35.68C51.199 35.424 51.303 35.192 51.399 34.984C51.511 34.776 51.583 34.64 51.615 34.576C51.775 34.496 51.711 34.44 51.423 34.408C51.135 34.376 50.831 34.368 50.511 34.384C50.015 34.368 49.615 34.344 49.311 34.312C49.023 34.28 48.783 34.208 48.591 34.096C48.399 33.872 48.375 33.608 48.519 33.304C48.663 32.984 48.895 32.816 49.215 32.8C49.423 32.784 49.583 32.776 49.695 32.776C49.823 32.776 49.983 32.768 50.175 32.752C50.383 32.72 50.703 32.68 51.135 32.632L52.359 32.536L52.431 32.128C52.559 31.92 52.647 31.784 52.695 31.72C52.743 31.656 52.775 31.592 52.791 31.528C52.807 31.448 52.831 31.312 52.863 31.12C52.863 31.12 52.935 30.992 53.079 30.736C53.223 30.464 53.311 30.184 53.343 29.896C53.535 29.576 53.703 29.288 53.847 29.032C53.991 28.76 54.079 28.592 54.111 28.528C54.383 28.128 54.647 27.912 54.903 27.88C55.175 27.848 55.431 27.912 55.671 28.072C55.815 28.152 55.951 28.256 56.079 28.384C56.207 28.496 56.287 28.648 56.319 28.84C56.351 29.016 56.279 29.248 56.103 29.536C56.071 29.6 56.023 29.72 55.959 29.896C55.895 30.056 55.847 30.192 55.815 30.304C55.719 30.416 55.599 30.6 55.455 30.856C55.327 31.096 55.239 31.344 55.191 31.6C55.063 31.872 54.983 32.04 54.951 32.104C54.919 32.168 54.871 32.2 54.807 32.2C54.839 32.36 54.935 32.44 55.095 32.44C55.255 32.424 55.519 32.408 55.887 32.392C56.191 32.36 56.399 32.328 56.511 32.296C56.639 32.248 56.783 32.264 56.943 32.344C57.023 32.456 57.063 32.624 57.063 32.848C57.079 33.056 57.055 33.264 56.991 33.472C56.927 33.664 56.839 33.784 56.727 33.832C56.647 33.832 56.479 33.88 56.223 33.976C55.983 34.056 55.679 34.104 55.311 34.12L54.039 34.24L53.631 35.056C53.519 35.264 53.423 35.456 53.343 35.632C53.263 35.792 53.207 35.888 53.175 35.92C53.175 36.016 53.119 36.16 53.007 36.352C52.911 36.544 52.807 36.752 52.695 36.976C52.599 37.248 52.487 37.496 52.359 37.72C52.247 37.944 52.191 38.056 52.191 38.056C52.127 38.056 52.095 38.104 52.095 38.2C52.175 38.392 52.151 38.536 52.023 38.632C51.943 38.68 51.871 38.752 51.807 38.848C51.759 38.928 51.735 38.968 51.735 38.968C51.799 39.032 51.807 39.112 51.759 39.208C51.727 39.304 51.679 39.408 51.615 39.52C51.615 39.648 51.575 39.832 51.495 40.072C51.431 40.312 51.359 40.536 51.279 40.744C51.295 41.032 51.311 41.216 51.327 41.296C51.343 41.376 51.383 41.408 51.447 41.392C51.527 41.408 51.639 41.408 51.783 41.392C51.927 41.376 52.031 41.368 52.095 41.368C52.335 41.256 52.223 41.816 51.759 43.048C51.503 43.448 51.247 43.776 50.991 44.032C50.735 44.304 50.567 44.44 50.487 44.44ZM56.1763 42.352C56.0323 42.24 55.8723 42.096 55.6963 41.92C55.5363 41.744 55.4803 41.496 55.5283 41.176C55.5763 40.728 55.6403 40.336 55.7203 40C55.8003 39.648 55.8963 39.248 56.0083 38.8C56.0403 38.608 56.1203 38.28 56.2483 37.816C56.3923 37.352 56.5603 36.848 56.7523 36.304C56.9443 35.76 57.1443 35.248 57.3523 34.768C57.5603 34.272 57.7443 33.904 57.9043 33.664C58.0803 33.504 58.3363 33.424 58.6723 33.424C59.0243 33.424 59.2643 33.488 59.3923 33.616C59.5683 33.76 59.6243 34.016 59.5603 34.384C59.4963 34.736 59.2723 35.288 58.8883 36.04C58.8083 36.232 58.7043 36.44 58.5763 36.664C58.4643 36.872 58.3843 37.048 58.3363 37.192C58.2883 37.32 58.3043 37.376 58.3843 37.36C58.4803 37.184 58.6563 36.984 58.9123 36.76C59.1683 36.52 59.4403 36.288 59.7283 36.064C60.0163 35.84 60.2883 35.64 60.5443 35.464C60.8003 35.288 60.9763 35.176 61.0723 35.128C61.2003 35.048 61.3443 34.984 61.5043 34.936C61.6803 34.872 61.8003 34.824 61.8643 34.792C62.2323 34.616 62.6323 34.552 63.0643 34.6C63.5123 34.632 63.7843 34.768 63.8803 35.008C63.8963 35.136 63.9443 35.232 64.0243 35.296C64.1203 35.36 64.1683 35.392 64.1683 35.392C64.2323 35.392 64.2643 35.416 64.2643 35.464C64.2803 35.512 64.2883 35.536 64.2883 35.536C64.2883 35.648 64.1763 35.808 63.9523 36.016C63.7443 36.224 63.5123 36.336 63.2563 36.352C63.0483 36.368 62.8643 36.408 62.7043 36.472C62.5443 36.536 62.3523 36.616 62.1283 36.712C61.5203 37.064 60.9683 37.376 60.4723 37.648C59.9923 37.92 59.4963 38.336 58.9843 38.896C58.8723 39.024 58.7523 39.144 58.6243 39.256C58.4963 39.368 58.3683 39.528 58.2403 39.736C58.1603 39.816 58.0803 39.992 58.0003 40.264C57.9203 40.536 57.8483 40.8 57.7843 41.056C57.7363 41.296 57.7123 41.44 57.7123 41.488C57.7123 41.488 57.6883 41.568 57.6403 41.728C57.5923 41.872 57.5123 42.016 57.4003 42.16C57.2083 42.416 57.0163 42.576 56.8243 42.64C56.6483 42.704 56.4323 42.608 56.1763 42.352ZM66.1687 42.808C65.8327 42.872 65.5767 42.856 65.4007 42.76C65.2407 42.648 65.0727 42.512 64.8967 42.352C64.6407 42.224 64.4087 42.048 64.2007 41.824C63.9927 41.584 63.8327 41.336 63.7207 41.08C63.6087 40.824 63.5607 40.624 63.5767 40.48C63.6247 39.92 63.7527 39.312 63.9607 38.656C64.1847 38 64.4647 37.36 64.8007 36.736C65.1527 36.112 65.5447 35.56 65.9767 35.08C66.4247 34.584 66.9047 34.224 67.4167 34C67.7367 33.872 68.0807 33.824 68.4487 33.856C68.8167 33.888 69.0647 34.04 69.1927 34.312C69.4327 34.776 69.3767 35.072 69.0247 35.2C68.9767 35.2 68.9207 35.224 68.8567 35.272C68.7927 35.304 68.7607 35.352 68.7607 35.416C68.8247 35.448 69.0007 35.456 69.2887 35.44C69.5767 35.408 69.8647 35.36 70.1527 35.296C70.4567 35.216 70.6567 35.136 70.7527 35.056C70.8487 35.008 70.9207 34.984 70.9687 34.984C71.0167 34.984 71.1367 35 71.3287 35.032C71.6007 35.112 71.7367 35.208 71.7367 35.32C71.7367 35.384 71.7607 35.488 71.8087 35.632C71.8567 35.76 71.9127 35.824 71.9767 35.824C72.0887 35.84 72.1127 35.952 72.0487 36.16C72.0007 36.368 71.8167 36.584 71.4967 36.808C71.1927 37 71.0007 37.128 70.9207 37.192C70.8567 37.24 70.8487 37.352 70.8967 37.528C71.0247 37.832 71.0167 38.2 70.8727 38.632C70.7287 39.064 70.4887 39.512 70.1527 39.976C69.8167 40.44 69.4167 40.88 68.9527 41.296C68.5047 41.696 68.0327 42.04 67.5367 42.328C67.0567 42.6 66.6007 42.76 66.1687 42.808ZM66.2407 40.792C66.3047 40.792 66.4167 40.76 66.5767 40.696C66.7367 40.616 66.8647 40.552 66.9607 40.504C67.0247 40.44 67.1047 40.368 67.2007 40.288C67.3127 40.192 67.4007 40.136 67.4647 40.12C67.5287 40.12 67.5687 40.096 67.5847 40.048C67.6007 39.984 67.6567 39.864 67.7527 39.688C67.8487 39.496 68.0407 39.216 68.3287 38.848C68.6487 38.496 68.8567 38.216 68.9527 38.008C69.0487 37.784 69.0567 37.544 68.9767 37.288C68.9607 37.224 68.9127 37.184 68.8327 37.168C68.7687 37.152 68.6807 37.112 68.5687 37.048C68.4087 37.048 68.2967 37.088 68.2327 37.168C68.1847 37.232 68.0727 37.192 67.8967 37.048L67.5127 36.568L67.1047 36.976C66.8487 37.232 66.6167 37.552 66.4087 37.936C66.2167 38.32 66.0647 38.712 65.9527 39.112C65.8407 39.512 65.7687 39.864 65.7367 40.168C65.7207 40.408 65.7607 40.568 65.8567 40.648C65.9527 40.728 66.0807 40.776 66.2407 40.792ZM79.7601 42.904C79.5201 42.904 79.2881 42.832 79.0641 42.688C78.8401 42.528 78.6561 42.312 78.5121 42.04C78.3681 41.752 78.2961 41.416 78.2961 41.032C78.2961 40.792 78.3361 40.456 78.4161 40.024C78.5121 39.576 78.6481 39.016 78.8241 38.344C78.8561 38.12 78.8801 37.976 78.8961 37.912C78.9281 37.848 78.9441 37.784 78.9441 37.72C78.9441 37.688 78.9361 37.664 78.9201 37.648C78.9201 37.616 78.9041 37.6 78.8721 37.6C78.7441 37.6 78.5681 37.688 78.3441 37.864C78.1361 38.024 77.8961 38.216 77.6241 38.44C77.5761 38.472 77.5201 38.512 77.4561 38.56C77.4081 38.608 77.3521 38.656 77.2881 38.704C77.2401 38.752 77.1841 38.8 77.1201 38.848C76.9601 38.944 76.7121 39.128 76.3761 39.4C76.0561 39.672 75.7201 39.96 75.3681 40.264C75.0321 40.568 74.7361 40.824 74.4801 41.032C74.3521 41.128 74.2401 41.208 74.1441 41.272C74.0641 41.336 74.0081 41.368 73.9761 41.368C73.9441 41.368 73.8161 41.328 73.5921 41.248C73.3841 41.152 73.1761 41.024 72.9681 40.864C72.7761 40.688 72.6801 40.488 72.6801 40.264C72.6801 40.12 72.7361 39.832 72.8481 39.4C72.9761 38.968 73.1521 38.456 73.3761 37.864C73.6001 37.272 73.8561 36.672 74.1441 36.064C74.2081 35.92 74.2561 35.728 74.2881 35.488C74.3201 35.248 74.3521 35.016 74.3841 34.792C74.4321 34.552 74.5121 34.376 74.6241 34.264C74.6721 34.184 74.7281 34.128 74.7921 34.096C74.8721 34.048 74.9521 34.024 75.0321 34.024C75.1921 34.024 75.3441 34.064 75.4881 34.144C75.6321 34.208 75.7681 34.32 75.8961 34.48C76.1361 34.736 76.2641 35.04 76.2801 35.392C76.3121 35.728 76.2881 36.056 76.2081 36.376C76.1281 36.696 76.0401 36.96 75.9441 37.168C75.8481 37.36 75.8001 37.44 75.8001 37.408C75.8641 37.376 75.9521 37.296 76.0641 37.168C76.1921 37.04 76.4081 36.888 76.7121 36.712C77.1281 36.392 77.4481 36.168 77.6721 36.04C77.8961 35.896 78.0641 35.792 78.1761 35.728C78.3041 35.664 78.4161 35.592 78.5121 35.512C78.5921 35.448 78.6481 35.408 78.6801 35.392C78.7281 35.376 78.7521 35.368 78.7521 35.368C78.8001 35.368 78.8801 35.336 78.9921 35.272C79.1201 35.208 79.2401 35.176 79.3521 35.176C79.5121 35.176 79.6801 35.216 79.8561 35.296C80.0321 35.36 80.1841 35.456 80.3121 35.584C80.4401 35.696 80.5041 35.816 80.5041 35.944C80.5041 35.992 80.5201 36.032 80.5521 36.064C80.5841 36.096 80.6161 36.136 80.6481 36.184C80.7281 36.28 80.8161 36.416 80.9121 36.592C81.0241 36.752 81.0801 37.016 81.0801 37.384C81.0801 37.64 81.0241 38.016 80.9121 38.512C80.8001 39.008 80.6801 39.496 80.5521 39.976C80.4241 40.472 80.3601 40.872 80.3601 41.176C80.3761 41.464 80.4081 41.688 80.4561 41.848C80.5041 41.992 80.5281 42.112 80.5281 42.208C80.5281 42.336 80.4641 42.488 80.3361 42.664C80.2081 42.824 80.0161 42.904 79.7601 42.904ZM83.3837 42.208C83.3197 42.208 83.1837 42.16 82.9757 42.064C82.7677 41.968 82.6637 41.92 82.6637 41.92C82.6637 41.856 82.6397 41.776 82.5917 41.68C82.5597 41.584 82.5437 41.504 82.5437 41.44C82.4317 41.376 82.3197 41.272 82.2077 41.128C82.0957 40.984 82.0717 40.824 82.1357 40.648C82.2317 40.472 82.3597 40.208 82.5197 39.856C82.6957 39.488 82.8797 39.08 83.0717 38.632C83.2797 38.168 83.4717 37.72 83.6477 37.288C83.8237 36.856 83.9757 36.488 84.1037 36.184C84.2317 35.864 84.3037 35.672 84.3197 35.608C84.3197 35.544 84.3277 35.432 84.3437 35.272C84.3757 35.112 84.4797 34.976 84.6557 34.864C84.8637 34.72 85.0797 34.712 85.3037 34.84C85.5277 34.968 85.7197 35.192 85.8797 35.512C86.0397 35.816 86.1197 36.176 86.1197 36.592C86.1197 36.704 86.0397 36.992 85.8797 37.456C85.7197 37.904 85.5037 38.44 85.2317 39.064C84.9757 39.688 84.6877 40.32 84.3677 40.96C84.1277 41.424 83.9437 41.752 83.8157 41.944C83.7037 42.12 83.5597 42.208 83.3837 42.208ZM86.6477 33.016C86.4557 33.016 86.2237 32.928 85.9517 32.752C85.6957 32.576 85.4637 32.352 85.2557 32.08C85.0477 31.808 84.9437 31.52 84.9437 31.216C84.9437 31.136 85.0157 30.992 85.1597 30.784C85.3037 30.56 85.4397 30.344 85.5677 30.136C85.7117 29.928 85.7837 29.808 85.7837 29.776C85.9117 29.776 86.0637 29.8 86.2397 29.848C86.4157 29.896 86.5597 29.952 86.6717 30.016C86.8477 30.416 87.0797 30.76 87.3677 31.048C87.6557 31.32 87.7997 31.632 87.7997 31.984C87.7997 32.336 87.7117 32.6 87.5357 32.776C87.3597 32.936 87.0637 33.016 86.6477 33.016ZM90.4226 42.784C90.2146 42.88 89.9746 42.92 89.7026 42.904C89.4306 42.888 89.0626 42.8 88.5986 42.64C88.5666 42.64 88.4546 42.568 88.2626 42.424C88.0706 42.28 87.8786 42.112 87.6866 41.92C87.4946 41.728 87.3666 41.568 87.3026 41.44C87.0466 41.072 86.9666 40.528 87.0626 39.808C87.1746 39.088 87.4306 38.224 87.8306 37.216C87.9426 36.976 88.1106 36.672 88.3346 36.304C88.5746 35.936 88.8066 35.6 89.0306 35.296C89.2706 34.976 89.4386 34.792 89.5346 34.744C89.5346 34.744 89.6226 34.712 89.7986 34.648C89.9746 34.584 90.1986 34.48 90.4706 34.336C90.5506 34.304 90.6866 34.264 90.8786 34.216C91.0866 34.168 91.2946 34.128 91.5026 34.096C91.7266 34.048 91.8786 34.032 91.9586 34.048C92.2786 34.064 92.6066 34.184 92.9426 34.408C93.2946 34.616 93.5826 34.864 93.8066 35.152C94.0306 35.424 94.1026 35.664 94.0226 35.872C94.0226 35.904 93.9746 36.008 93.8786 36.184C93.7986 36.344 93.7106 36.512 93.6146 36.688C93.5186 36.848 93.4386 36.968 93.3746 37.048C93.2946 37.144 93.1506 37.184 92.9426 37.168C92.7506 37.152 92.5746 37.088 92.4146 36.976C92.2546 36.864 92.1666 36.712 92.1506 36.52C92.1186 36.392 91.9986 36.272 91.7906 36.16C91.5986 36.048 91.5026 35.992 91.5026 35.992C91.3746 35.992 91.2066 36.12 90.9986 36.376C90.7906 36.632 90.5746 36.92 90.3506 37.24C90.0626 37.528 89.8546 37.84 89.7266 38.176C89.6146 38.496 89.5346 38.8 89.4866 39.088C89.4546 39.36 89.4146 39.568 89.3666 39.712C89.3026 39.872 89.3026 40.072 89.3666 40.312C89.4306 40.552 89.5106 40.688 89.6066 40.72C89.7506 40.736 89.9426 40.728 90.1826 40.696C90.4386 40.648 90.7026 40.592 90.9746 40.528C91.2626 40.448 91.5506 40.368 91.8386 40.288C92.1266 40.192 92.3826 40.096 92.6066 40C92.9106 39.808 93.1746 39.736 93.3986 39.784C93.6226 39.816 93.7906 39.848 93.9026 39.88C94.0786 39.944 94.1666 40.08 94.1666 40.288C94.1666 40.496 94.0946 40.72 93.9506 40.96C93.8066 41.184 93.5986 41.368 93.3266 41.512C93.0706 41.64 92.8386 41.784 92.6306 41.944C92.4386 42.088 92.3426 42.2 92.3426 42.28C92.2786 42.28 92.2066 42.304 92.1266 42.352C92.0626 42.384 92.0066 42.392 91.9586 42.376C91.9266 42.376 91.7986 42.4 91.5746 42.448C91.3506 42.496 91.1186 42.552 90.8786 42.616C90.6546 42.68 90.5026 42.736 90.4226 42.784Z" fill="#3E3689"/>
<defs>
<clipPath id="clip0_1_145">
<rect width="42" height="42" fill="white"/>
</clipPath>
</defs>
</svg>
